<svg width="48" height="56" viewBox="0 0 48 56" xmlns="http://www.w3.org/2000/svg"><g><path d="m46.34242,11.84939c0.6,0.6 1.1,1.4 1.5,2.4s0.6,1.9 0.6,2.8l0,36c0,0.8 -0.3,1.5 -0.9,2.1s-1.3,0.9 -2.1,0.9l-42,0c-0.8,0 -1.5,-0.3 -2.1,-0.9s-0.9,-1.3 -0.9,-2.1l0,-50c0,-0.8 0.3,-1.5 0.9,-2.1s1.3,-0.9 2.1,-0.9l28,0c0.8,0 1.8,0.2 2.8,0.6s1.8,0.9 2.4,1.5l9.7,9.7zm-13.9,-7.6l0,11.7l11.8,0c-0.2,-0.6 -0.4,-1 -0.7,-1.3l-9.8,-9.8c-0.3,-0.2 -0.7,-0.4 -1.3,-0.6zm12,47.7l0,-32l-13,0c-0.8,0 -1.5,-0.3 -2.1,-0.9s-0.9,-1.3 -0.9,-2.1l0,-13l-24,0l0,48l40,0zm-16.1,-18.5c0.7,0.5 1.6,1.1 2.6,1.8c1.2,-0.1 2.4,-0.2 3.7,-0.2c3.1,0 4.9,0.5 5.5,1.5c0.3,0.5 0.4,1 0.1,1.6c0,0 0,0 0,0.1l-0.1,0.1l0,0c-0.1,0.8 -0.9,1.2 -2.2,1.2c-1,0 -2.2,-0.2 -3.6,-0.6s-2.8,-1 -4.1,-1.7c-4.6,0.5 -8.7,1.4 -12.3,2.6c-3.2,5.5 -5.7,8.2 -7.6,8.2c-0.3,0 -0.6,-0.1 -0.9,-0.2l-0.8,-0.4c0,0 -0.1,-0.1 -0.2,-0.2c-0.2,-0.2 -0.3,-0.6 -0.2,-1.1c0.2,-0.8 0.8,-1.8 1.8,-2.9s2.4,-2.1 4.1,-3c0.3,-0.2 0.5,-0.1 0.7,0.2c0,0 0.1,0.1 0.1,0.1c1.1,-1.8 2.2,-3.8 3.3,-6.2c1.4,-2.8 2.5,-5.6 3.3,-8.2c-0.5,-1.7 -0.8,-3.4 -1,-5s-0.1,-2.9 0.2,-4c0.2,-0.8 0.7,-1.3 1.3,-1.3l0.7,0c0.5,0 0.8,0.2 1.1,0.5c0.4,0.4 0.5,1.1 0.3,2.1c0,0.1 -0.1,0.2 -0.1,0.3c0,0.1 0,0.1 0,0.3l0,0.9c0,2.6 -0.2,4.6 -0.4,6c1.3,3.4 2.8,5.9 4.7,7.5zm-18,12.8c1.1,-0.5 2.5,-2.1 4.3,-4.9c-1.1,0.8 -2,1.7 -2.7,2.6s-1.3,1.7 -1.6,2.3zm12.5,-28.7c-0.3,0.9 -0.3,2.3 -0.1,4.1c0,-0.1 0.1,-0.6 0.2,-1.4c0,-0.1 0.1,-0.5 0.2,-1.3c0,-0.1 0.1,-0.2 0.1,-0.3c0,0 0,0 0,-0.1s0,0 0,0s0,0 0,0c0,-0.5 -0.2,-0.8 -0.4,-1.1c0,0 0,0 0,0.1l0,0zm-3.9,20.6c2.8,-1.1 5.8,-2 8.9,-2.5c0,0 -0.2,-0.1 -0.4,-0.3s-0.4,-0.3 -0.5,-0.4c-1.6,-1.4 -2.9,-3.2 -4,-5.5c-0.6,1.8 -1.4,3.8 -2.6,6.2c-0.6,1.1 -1.1,2 -1.4,2.5zm20.2,-0.5c-0.5,-0.5 -2,-0.8 -4.4,-0.8c1.6,0.6 2.9,0.9 3.9,0.9c0.3,0 0.5,0 0.5,-0.1c0.1,0.1 0,0.1 0,0z"/></g></svg>